<svg width="17" height="15" viewBox="0 0 17 15" fill="none" xmlns="http://www.w3.org/2000/svg">
<g opacity="0.75" clip-path="url(#clip0_104_3)">
<path d="M15.4081 14.7715C15.1625 14.7715 14.9497 14.6812 14.7702 14.4997C14.1348 13.8593 9.05342 8.73412 8.4185 8.09323C8.23901 7.91219 8.14902 7.69805 8.14902 7.44982C8.14902 7.20208 8.23901 6.98745 8.4185 6.80641C9.05342 6.16602 14.1348 1.04083 14.7702 0.399933C14.9497 0.218897 15.1625 0.128128 15.4081 0.128128C15.6537 0.128128 15.8665 0.218897 16.046 0.399933C16.2255 0.58097 16.3155 0.795605 16.3155 1.04334C16.3155 2.32464 16.3155 12.575 16.3155 13.8563C16.3155 14.1045 16.2255 14.3187 16.046 14.4997C15.8665 14.6812 15.6537 14.7715 15.4081 14.7715Z" fill="#EF5DA8"/>
</g>
<g opacity="0.75" clip-path="url(#clip1_104_3)">
<path d="M7.40813 14.7715C7.16251 14.7715 6.94971 14.6812 6.77022 14.4997C6.1348 13.8593 1.05342 8.73412 0.418498 8.09323C0.239008 7.91219 0.149015 7.69805 0.149015 7.44982C0.149015 7.20208 0.239008 6.98745 0.418498 6.80641C1.05342 6.16602 6.1348 1.04083 6.77022 0.399933C6.94971 0.218897 7.16251 0.128128 7.40813 0.128128C7.65374 0.128128 7.86655 0.218897 8.04604 0.399933C8.22552 0.58097 8.31552 0.795605 8.31552 1.04334C8.31552 2.32464 8.31552 12.575 8.31552 13.8563C8.31552 14.1045 8.22552 14.3187 8.04604 14.4997C7.86655 14.6812 7.65374 14.7715 7.40813 14.7715Z" fill="#EF5DA8"/>
</g>
<defs>
<clipPath id="clip0_104_3">
<rect width="8.36539" height="15" fill="white" transform="matrix(-1 0 0 1 16.3652 1.52588e-05)"/>
</clipPath>
<clipPath id="clip1_104_3">
<rect width="8.36539" height="15" fill="white" transform="matrix(-1 0 0 1 8.36525 1.52588e-05)"/>
</clipPath>
</defs>
</svg>
