<svg width="24" height="24" viewBox="0 0 24 24" fill="none" xmlns="http://www.w3.org/2000/svg">
<g clip-path="url(#clip0_2_354)">
<path d="M2.00003 18H12V20H2.00003V18ZM2.00003 11H16V13H2.00003V11ZM2.00003 4.00003H22V6.00003H2.00003V4.00003ZM19 15.17V9.00003H24V11H21V18C20.9997 18.6368 20.7968 19.2569 20.4206 19.7707C20.0444 20.2845 19.5145 20.6652 18.9076 20.8579C18.3007 21.0505 17.6482 21.045 17.0446 20.8423C16.441 20.6395 15.9176 20.2499 15.5501 19.7299C15.1826 19.2099 14.9901 18.5864 15.0004 17.9497C15.0108 17.313 15.2234 16.6962 15.6076 16.1884C15.9918 15.6806 16.5276 15.3082 17.1375 15.1251C17.7474 14.942 18.3997 14.9578 19 15.17Z" fill="#371B34"/>
</g>
<defs>
<clipPath id="clip0_2_354">
<rect width="24" height="24" fill="white"/>
</clipPath>
</defs>
</svg>
