<svg width="17" height="15" viewBox="0 0 17 15" fill="none" xmlns="http://www.w3.org/2000/svg">
<g opacity="0.75" clip-path="url(#clip0_104_2)">
<path d="M0.957117 14.7715C1.20273 14.7715 1.41554 14.6813 1.59502 14.4997C2.23045 13.8593 7.31182 8.73414 7.94675 8.09324C8.12624 7.9122 8.21623 7.69807 8.21623 7.44983C8.21623 7.2021 8.12624 6.98746 7.94675 6.80643C7.31182 6.16603 2.23045 1.04085 1.59502 0.399949C1.41554 0.218912 1.20273 0.128143 0.957117 0.128143C0.711501 0.128143 0.498699 0.218912 0.31921 0.399949C0.139721 0.580985 0.0497284 0.795621 0.0497284 1.04335C0.0497284 2.32465 0.0497284 12.575 0.0497284 13.8563C0.0497284 14.1045 0.139721 14.3187 0.31921 14.4997C0.498699 14.6813 0.711501 14.7715 0.957117 14.7715Z" fill="#EF5DA8"/>
</g>
<g opacity="0.75" clip-path="url(#clip1_104_2)">
<path d="M8.95712 14.7715C9.20273 14.7715 9.41554 14.6813 9.59502 14.4997C10.2304 13.8593 15.3118 8.73414 15.9467 8.09324C16.1262 7.9122 16.2162 7.69807 16.2162 7.44983C16.2162 7.2021 16.1262 6.98746 15.9467 6.80643C15.3118 6.16603 10.2304 1.04085 9.59502 0.399949C9.41554 0.218912 9.20273 0.128143 8.95712 0.128143C8.7115 0.128143 8.4987 0.218912 8.31921 0.399949C8.13972 0.580985 8.04973 0.795621 8.04973 1.04335C8.04973 2.32465 8.04973 12.575 8.04973 13.8563C8.04973 14.1045 8.13972 14.3187 8.31921 14.4997C8.4987 14.6813 8.7115 14.7715 8.95712 14.7715Z" fill="#EF5DA8"/>
</g>
<defs>
<clipPath id="clip0_104_2">
<rect width="8.36539" height="15" fill="white"/>
</clipPath>
<clipPath id="clip1_104_2">
<rect width="8.36539" height="15" fill="white" transform="translate(8 3.05176e-05)"/>
</clipPath>
</defs>
</svg>
